<?xml version="1.0" encoding="iso-8859-1"?>
<!-- Generator: Adobe Illustrator 17.1.0, SVG Export Plug-In . SVG Version: 6.00 Build 0)  -->
<!DOCTYPE svg PUBLIC "-//W3C//DTD SVG 1.1//EN" "http://www.w3.org/Graphics/SVG/1.1/DTD/svg11.dtd">
<svg version="1.1" id="Capa_1" xmlns="http://www.w3.org/2000/svg" xmlns:xlink="http://www.w3.org/1999/xlink" x="0px" y="0px"
	 viewBox="0 0 174 174" style="enable-background:new 0 0 174 174;" xml:space="preserve">
<path d="M161,146.708H13c-7.168,0-13-5.832-13-13v-86c0-7.168,5.832-13,13-13h112.5v-4.917c0-1.381,1.119-2.5,2.5-2.5h23.75
	c1.381,0,2.5,1.119,2.5,2.5v4.917H161c7.168,0,13,5.832,13,13v86C174,140.877,168.168,146.708,161,146.708z M13,39.708
	c-4.411,0-8,3.589-8,8v86c0,4.411,3.589,8,8,8h148c4.411,0,8-3.589,8-8v-86c0-4.411-3.589-8-8-8H13z M130.5,34.708h18.75v-2.417
	H130.5V34.708z M114.632,127.708c-20.402,0-37-16.598-37-37s16.598-37,37-37s37,16.598,37,37S135.034,127.708,114.632,127.708z
	 M114.632,58.708c-17.645,0-32,14.355-32,32s14.355,32,32,32s32-14.355,32-32S132.277,58.708,114.632,58.708z M114.632,117.105
	c-14.555,0-26.397-11.841-26.397-26.396s11.842-26.396,26.397-26.396s26.396,11.841,26.396,26.396S129.187,117.105,114.632,117.105z
	 M114.632,69.312c-11.798,0-21.397,9.599-21.397,21.396s9.599,21.396,21.397,21.396c11.798,0,21.396-9.599,21.396-21.396
	S126.43,69.312,114.632,69.312z M99.076,93.712c-1.286,0-2.378-0.986-2.488-2.29c-0.023-0.271-0.502-6.685,4.324-12.498
	c4.774-5.752,12.545-6.506,12.874-6.536c1.379-0.129,2.589,0.893,2.712,2.268c0.122,1.373-0.889,2.585-2.26,2.711l0,0
	c-0.06,0.006-6.055,0.625-9.479,4.75c-3.478,4.189-3.193,8.839-3.189,8.885c0.116,1.376-0.905,2.585-2.281,2.701
	C99.218,93.709,99.146,93.712,99.076,93.712z M61.5,65.708H16c-1.381,0-2.5-1.119-2.5-2.5v-14.5c0-1.381,1.119-2.5,2.5-2.5h45.5
	c1.381,0,2.5,1.119,2.5,2.5v14.5C64,64.589,62.881,65.708,61.5,65.708z M18.5,60.708H59v-9.5H18.5V60.708z"/>
<g>
</g>
<g>
</g>
<g>
</g>
<g>
</g>
<g>
</g>
<g>
</g>
<g>
</g>
<g>
</g>
<g>
</g>
<g>
</g>
<g>
</g>
<g>
</g>
<g>
</g>
<g>
</g>
<g>
</g>
</svg>
