<?xml version="1.0" ?><!DOCTYPE svg  PUBLIC '-//W3C//DTD SVG 1.1//EN'  'http://www.w3.org/Graphics/SVG/1.1/DTD/svg11.dtd'><svg enable-background="new 0 0 128 128" id="Layer_1" version="1.1" viewBox="0 0 128 128" xml:space="preserve" xmlns="http://www.w3.org/2000/svg" xmlns:xlink="http://www.w3.org/1999/xlink"><g><g><g/></g></g><g><g><g><g><path d="M83.739,34.886c-0.17-0.1-4.176-2.504-4.517-7.032c-0.327-4.33-0.874-9.62-0.88-9.672      c-0.002-0.09-0.029-1.279-1.701-1.749c-8.011-2.253-19.197-2.254-26.594-0.002c-1.686,0.513-1.798,1.688-1.802,1.738      c-0.007,0.068-0.582,5.355-0.909,9.684c-0.341,4.53-4.404,6.931-4.578,7.031l-0.373-0.644c0.039-0.023,3.897-2.311,4.209-6.443      c0.328-4.341,0.904-9.64,0.91-9.693c0.003-0.052,0.124-1.714,2.326-2.385c7.52-2.288,18.88-2.29,27.013-0.001      c2.24,0.63,2.243,2.359,2.242,2.433c0.004,0.01,0.552,5.309,0.88,9.65c0.312,4.144,4.114,6.423,4.152,6.446L83.739,34.886z" fill="#313638"/></g></g><g><g><path d="M63.101,114c-4.797,0-9.518-0.572-13.278-1.716c-2.202-0.67-2.32-2.334-2.323-2.405      c-0.005-0.033-0.579-5.332-0.907-9.674c-0.312-4.142-4.168-6.419-4.207-6.442l0.372-0.644c0.174,0.1,4.236,2.501,4.577,7.029      c0.327,4.33,0.9,9.617,0.906,9.669c0.005,0.066,0.112,1.241,1.799,1.754c7.398,2.251,18.579,2.25,26.587-0.003      c1.693-0.476,1.683-1.689,1.683-1.702c0.007-0.098,0.524-5.387,0.85-9.719c0.341-4.526,4.285-6.928,4.453-7.028l0.382,0.64      c-0.038,0.022-3.781,2.311-4.092,6.444c-0.328,4.339-0.845,9.637-0.85,9.689c0.004,0.029,0.018,1.76-2.225,2.392      C72.765,113.429,67.895,114,63.101,114z" fill="#313638"/></g></g></g><g><g><path d="M79.959,95.016h-33.34c-5.5,0-9.975-4.475-9.975-9.975V42.929c0-5.5,4.475-9.975,9.975-9.975h33.34     c5.5,0,9.975,4.475,9.975,9.975V85.04C89.935,90.541,85.459,95.016,79.959,95.016z M46.619,34.443     c-4.679,0-8.486,3.807-8.486,8.486V85.04c0,4.679,3.807,8.486,8.486,8.486h33.34c4.679,0,8.486-3.807,8.486-8.486V42.929     c0-4.679-3.807-8.486-8.486-8.486H46.619z" fill="#313638"/></g></g><g><g><g><path d="M79.877,92.658H46.703c-4.2,0-7.617-3.416-7.617-7.616V42.928c0-4.199,3.417-7.616,7.617-7.616h33.174      c4.2,0,7.617,3.417,7.617,7.616v42.113C87.494,89.241,84.077,92.658,79.877,92.658z M46.703,36.057      c-3.79,0-6.872,3.083-6.872,6.871v42.113c0,3.789,3.083,6.871,6.872,6.871h33.174c3.79,0,6.872-3.083,6.872-6.871V42.928      c0-3.789-3.083-6.871-6.872-6.871H46.703z" fill="#313638"/></g></g></g><g><g><g><path d="M62.979,50.902c-2.258,0-4.096-1.838-4.096-4.096c0-2.258,1.838-4.096,4.096-4.096      s4.096,1.838,4.096,4.096C67.075,49.064,65.238,50.902,62.979,50.902z M62.979,43.455c-1.848,0-3.351,1.504-3.351,3.351      c0,1.848,1.503,3.351,3.351,3.351c1.848,0,3.351-1.504,3.351-3.351C66.331,44.958,64.828,43.455,62.979,43.455z" fill="#313638"/></g></g><g><g><path d="M72.599,51.548c-0.574,0-1.145-0.139-1.698-0.411c-0.581-0.287-1.057-0.764-1.342-1.343      c-0.584-1.185-0.545-2.466,0.108-3.517c0.939-1.508,2.922-2.063,4.63-1.22c0.579,0.286,1.055,0.763,1.341,1.342      c0.585,1.185,0.546,2.467-0.107,3.517C74.896,50.938,73.799,51.548,72.599,51.548z M72.599,45.391      c-0.942,0-1.802,0.478-2.3,1.28c-0.514,0.827-0.54,1.845-0.072,2.794c0.213,0.433,0.569,0.789,1.004,1.004      c1.371,0.676,2.928,0.245,3.668-0.946c0.514-0.827,0.54-1.845,0.072-2.794c-0.214-0.433-0.571-0.79-1.004-1.004      C73.518,45.504,73.058,45.391,72.599,45.391z" fill="#313638"/></g></g><g><g><path d="M48.953,59.74c-0.574,0-1.145-0.139-1.698-0.411c-0.581-0.287-1.057-0.764-1.342-1.343      c-0.584-1.185-0.545-2.466,0.108-3.517c0.94-1.509,2.923-2.063,4.63-1.22c0.579,0.286,1.055,0.763,1.341,1.342      c0.585,1.185,0.546,2.467-0.107,3.517C51.251,59.13,50.154,59.74,48.953,59.74z M48.953,53.583c-0.942,0-1.802,0.478-2.3,1.28      c-0.514,0.827-0.54,1.845-0.072,2.794c0.213,0.433,0.569,0.789,1.004,1.004c1.37,0.676,2.927,0.246,3.668-0.946      c0.514-0.827,0.54-1.845,0.072-2.794c-0.214-0.433-0.571-0.79-1.004-1.004C49.873,53.696,49.412,53.583,48.953,53.583z" fill="#313638"/></g></g><g><g><path d="M49.156,76.14c-0.574,0-1.145-0.138-1.698-0.411c-0.579-0.286-1.055-0.762-1.341-1.341      c-0.585-1.186-0.546-2.468,0.107-3.518c0.939-1.508,2.919-2.065,4.63-1.219c0.579,0.286,1.055,0.762,1.341,1.341      c0.585,1.185,0.546,2.467-0.107,3.517C51.453,75.53,50.357,76.14,49.156,76.14z M49.156,69.985c-0.943,0-1.802,0.478-2.3,1.279      c-0.514,0.826-0.54,1.845-0.072,2.795c0.214,0.432,0.571,0.789,1.004,1.004c1.371,0.675,2.928,0.246,3.668-0.946      c0.514-0.826,0.54-1.844,0.072-2.794c-0.214-0.432-0.571-0.789-1.004-1.004C50.074,70.097,49.615,69.985,49.156,69.985z" fill="#313638"/></g></g><g><g><path d="M53.38,84.084c-0.574,0-1.145-0.138-1.698-0.411c-0.579-0.286-1.055-0.762-1.341-1.341      c-0.585-1.185-0.546-2.467,0.107-3.517c0.939-1.51,2.921-2.065,4.63-1.22c0.579,0.286,1.055,0.762,1.341,1.341      c0.585,1.185,0.546,2.467-0.107,3.517C55.677,83.474,54.582,84.084,53.38,84.084z M53.38,77.928c-0.942,0-1.802,0.478-2.3,1.279      c-0.514,0.827-0.54,1.845-0.072,2.795c0.214,0.432,0.571,0.789,1.004,1.004c1.371,0.675,2.928,0.245,3.668-0.945      c0.514-0.827,0.54-1.845,0.072-2.795c-0.214-0.432-0.571-0.789-1.004-1.004C54.299,78.041,53.839,77.928,53.38,77.928z" fill="#313638"/></g></g><g><g><path d="M53.38,51.548c-0.574,0-1.145-0.139-1.698-0.411c-0.579-0.287-1.055-0.763-1.341-1.342      c-0.585-1.185-0.546-2.466,0.107-3.517c0.939-1.508,2.92-2.065,4.63-1.221c0.579,0.286,1.055,0.763,1.341,1.342      c0.585,1.185,0.546,2.467-0.107,3.518C55.677,50.938,54.582,51.548,53.38,51.548z M53.381,45.391      c-0.943,0-1.803,0.479-2.301,1.28c-0.514,0.827-0.54,1.845-0.072,2.794c0.214,0.433,0.57,0.79,1.004,1.004      c1.374,0.676,2.928,0.245,3.668-0.945c0.514-0.827,0.54-1.845,0.072-2.795c-0.214-0.433-0.571-0.79-1.004-1.004      C54.299,45.504,53.839,45.391,53.381,45.391z" fill="#313638"/></g></g><g><g><path d="M76.799,59.74c-0.574,0-1.145-0.139-1.698-0.411c-0.58-0.286-1.056-0.763-1.342-1.342      c-0.585-1.185-0.546-2.466,0.107-3.517c0.939-1.509,2.92-2.064,4.63-1.221c0.58,0.287,1.056,0.763,1.342,1.342      c0.585,1.185,0.545,2.467-0.108,3.518C79.095,59.13,77.999,59.74,76.799,59.74z M76.799,53.583c-0.943,0-1.803,0.479-2.301,1.28      c-0.514,0.827-0.54,1.845-0.072,2.794c0.214,0.433,0.571,0.79,1.005,1.004c1.371,0.678,2.927,0.246,3.667-0.945      c0.514-0.827,0.54-1.845,0.073-2.795c-0.214-0.433-0.571-0.789-1.005-1.004C77.717,53.696,77.257,53.583,76.799,53.583z" fill="#313638"/></g></g><g><g><path d="M76.798,76.14c-0.573,0-1.144-0.138-1.697-0.411c-0.579-0.285-1.056-0.762-1.342-1.341      c-0.585-1.185-0.546-2.467,0.107-3.517c0.939-1.511,2.922-2.065,4.63-1.22c0.58,0.286,1.056,0.762,1.342,1.341      c0.585,1.185,0.546,2.467-0.108,3.517C79.095,75.531,77.999,76.14,76.798,76.14z M76.798,69.985c-0.942,0-1.802,0.478-2.3,1.279      c-0.514,0.827-0.54,1.845-0.072,2.795c0.214,0.433,0.571,0.789,1.005,1.004c1.373,0.675,2.927,0.244,3.667-0.945      c0.514-0.827,0.54-1.845,0.073-2.795c-0.214-0.432-0.571-0.789-1.005-1.004C77.717,70.097,77.257,69.985,76.798,69.985z" fill="#313638"/></g></g><g><g><path d="M72.516,84.395c-0.573,0-1.144-0.138-1.697-0.411c-0.579-0.285-1.056-0.762-1.342-1.341      c-0.585-1.185-0.546-2.467,0.107-3.517c0.939-1.511,2.923-2.065,4.63-1.22c0.58,0.286,1.056,0.762,1.342,1.341      c0.585,1.185,0.546,2.467-0.108,3.517C74.813,83.786,73.717,84.395,72.516,84.395z M72.516,78.239      c-0.942,0-1.802,0.478-2.3,1.279c-0.514,0.827-0.54,1.845-0.072,2.795c0.214,0.433,0.571,0.789,1.005,1.004      c1.373,0.676,2.927,0.244,3.667-0.945c0.514-0.827,0.54-1.845,0.073-2.795c-0.214-0.432-0.571-0.789-1.005-1.004      C73.435,78.351,72.974,78.239,72.516,78.239z" fill="#313638"/></g></g><g><g><path d="M67.862,60.087c-0.741,0-1.478-0.178-2.193-0.531c-0.743-0.367-1.354-0.977-1.72-1.72      c-0.754-1.529-0.705-3.182,0.136-4.535c1.208-1.946,3.762-2.659,5.969-1.569c0.743,0.367,1.354,0.977,1.72,1.72      c0.754,1.529,0.705,3.182-0.136,4.535C70.821,59.302,69.409,60.087,67.862,60.087z M67.861,51.944      c-1.288,0-2.463,0.654-3.144,1.749c-0.702,1.13-0.739,2.519-0.101,3.812c0.295,0.597,0.786,1.088,1.383,1.382      c1.87,0.924,3.995,0.333,5.007-1.295c0.702-1.13,0.739-2.519,0.101-3.812c-0.295-0.597-0.786-1.088-1.383-1.382      C69.113,52.098,68.486,51.944,67.861,51.944z" fill="#313638"/></g></g><g><g><path d="M52.387,68.925c-0.741,0-1.478-0.178-2.193-0.531c-0.744-0.368-1.354-0.978-1.719-1.72      c-0.754-1.529-0.705-3.182,0.136-4.535c1.208-1.946,3.762-2.659,5.969-1.569c0.743,0.367,1.354,0.978,1.719,1.721      c0.754,1.529,0.705,3.182-0.136,4.535C55.346,68.139,53.934,68.925,52.387,68.925z M52.387,60.782      c-1.288,0-2.463,0.654-3.144,1.749c-0.702,1.13-0.739,2.519-0.101,3.812c0.294,0.596,0.785,1.087,1.382,1.382      c1.87,0.924,3.994,0.333,5.007-1.295c0.702-1.13,0.739-2.519,0.101-3.812c-0.295-0.597-0.785-1.088-1.382-1.382      C53.639,60.935,53.013,60.782,52.387,60.782z" fill="#313638"/></g></g><g><g><path d="M57.849,59.988c-0.741,0-1.478-0.179-2.193-0.531c-0.743-0.367-1.354-0.978-1.719-1.721      c-0.754-1.529-0.705-3.182,0.136-4.535c1.208-1.946,3.761-2.658,5.969-1.569c0.743,0.367,1.354,0.978,1.719,1.721      c0.754,1.529,0.705,3.182-0.136,4.535C60.807,59.203,59.395,59.988,57.849,59.988z M57.849,51.846      c-1.288,0-2.463,0.654-3.144,1.749c-0.702,1.13-0.739,2.519-0.101,3.812c0.295,0.597,0.785,1.088,1.382,1.382      c1.869,0.924,3.994,0.333,5.007-1.295c0.702-1.13,0.739-2.519,0.101-3.812c-0.295-0.597-0.785-1.088-1.382-1.382      C59.101,51.998,58.474,51.846,57.849,51.846z" fill="#313638"/></g></g><g><g><path d="M57.849,77.862c-0.741,0-1.478-0.178-2.193-0.531c-0.744-0.368-1.355-0.977-1.719-1.719      c-0.754-1.529-0.705-3.183,0.136-4.535c1.208-1.945,3.761-2.66,5.969-1.569c0.743,0.366,1.354,0.977,1.719,1.719      c0.754,1.529,0.705,3.183-0.136,4.535C60.807,77.076,59.395,77.862,57.849,77.862z M57.849,69.72      c-1.288,0-2.462,0.654-3.144,1.749c-0.702,1.129-0.739,2.518-0.101,3.812c0.294,0.595,0.785,1.086,1.382,1.382      c1.869,0.923,3.994,0.333,5.007-1.296c0.702-1.129,0.739-2.518,0.101-3.812c-0.295-0.597-0.785-1.087-1.382-1.382      C59.101,69.872,58.474,69.72,57.849,69.72z" fill="#313638"/></g></g><g><g><path d="M67.944,77.862c-0.741,0-1.478-0.178-2.193-0.531c-0.744-0.368-1.355-0.977-1.719-1.719      c-0.755-1.529-0.705-3.183,0.136-4.535c1.209-1.946,3.763-2.658,5.968-1.569c0.742,0.365,1.353,0.976,1.72,1.719      c0.754,1.529,0.705,3.183-0.136,4.535C70.903,77.076,69.491,77.862,67.944,77.862z M67.943,69.72      c-1.287,0-2.462,0.654-3.143,1.748c-0.702,1.13-0.739,2.519-0.101,3.813c0.294,0.595,0.785,1.086,1.382,1.382      c1.869,0.923,3.994,0.333,5.007-1.296c0.702-1.129,0.739-2.518,0.101-3.812c-0.296-0.597-0.786-1.088-1.383-1.381      C69.195,69.872,68.569,69.72,67.943,69.72z" fill="#313638"/></g></g><g><g><path d="M62.978,86.55c-0.698,0-1.393-0.169-2.067-0.501c-0.703-0.346-1.28-0.924-1.626-1.625      c-0.712-1.443-0.665-3.003,0.129-4.281c1.142-1.835,3.553-2.511,5.634-1.481c0.702,0.346,1.279,0.923,1.625,1.625      c0.713,1.443,0.665,3.003-0.129,4.28C65.772,85.808,64.44,86.55,62.978,86.55z M62.978,78.904c-1.201,0-2.297,0.61-2.932,1.632      c-0.655,1.054-0.688,2.351-0.093,3.558c0.274,0.556,0.731,1.013,1.288,1.288c1.745,0.859,3.728,0.309,4.671-1.208      c0.656-1.053,0.689-2.35,0.094-3.557c-0.274-0.556-0.732-1.013-1.288-1.288C64.147,79.048,63.562,78.904,62.978,78.904z" fill="#313638"/></g></g><g><g><path d="M73.24,68.925c-0.741,0-1.478-0.178-2.193-0.531c-0.744-0.368-1.354-0.978-1.719-1.72      c-0.754-1.529-0.705-3.182,0.136-4.535c1.209-1.946,3.762-2.659,5.969-1.569c0.743,0.367,1.354,0.978,1.719,1.721      c0.754,1.529,0.705,3.182-0.136,4.535C76.199,68.139,74.787,68.925,73.24,68.925z M73.24,60.782      c-1.288,0-2.463,0.654-3.144,1.749c-0.702,1.13-0.739,2.519-0.101,3.812c0.294,0.596,0.785,1.087,1.382,1.382      c1.87,0.924,3.994,0.333,5.007-1.295c0.702-1.13,0.739-2.519,0.101-3.812c-0.295-0.597-0.785-1.088-1.382-1.382      C74.492,60.935,73.865,60.782,73.24,60.782z" fill="#313638"/></g></g><g><g><path d="M79.55,65.847c-0.224,0-0.446-0.053-0.659-0.159c-0.236-0.117-0.43-0.311-0.547-0.547      c-0.229-0.463-0.211-0.966,0.047-1.38c0.369-0.593,1.155-0.814,1.819-0.486c0.236,0.116,0.43,0.31,0.547,0.547      c0.228,0.462,0.211,0.965-0.047,1.379C80.459,65.605,80.025,65.847,79.55,65.847z M79.55,63.861      c-0.216,0-0.413,0.11-0.528,0.293c-0.07,0.112-0.164,0.347-0.012,0.657c0.045,0.089,0.12,0.165,0.209,0.209      c0.324,0.161,0.684,0.065,0.857-0.212c0.07-0.112,0.164-0.347,0.012-0.656c-0.045-0.089-0.12-0.165-0.208-0.209      C79.769,63.888,79.659,63.861,79.55,63.861z" fill="#313638"/></g></g><g><g><path d="M46.078,65.847c-0.224,0-0.446-0.053-0.659-0.159c-0.237-0.117-0.432-0.311-0.548-0.547      c-0.228-0.463-0.211-0.966,0.047-1.38c0.369-0.593,1.154-0.814,1.819-0.486c0.237,0.116,0.432,0.311,0.548,0.547      c0.228,0.462,0.211,0.965-0.047,1.379C46.987,65.605,46.553,65.847,46.078,65.847z M46.077,63.861      c-0.216,0-0.413,0.11-0.528,0.293c-0.07,0.112-0.164,0.347-0.012,0.657c0.045,0.088,0.121,0.165,0.21,0.209      c0.325,0.161,0.684,0.065,0.857-0.212c0.07-0.112,0.164-0.347,0.012-0.656c-0.045-0.089-0.12-0.165-0.209-0.209      C46.297,63.888,46.186,63.861,46.077,63.861z" fill="#313638"/></g></g><g><g><path d="M62.979,69.819c-0.89,0-1.777-0.215-2.638-0.64c-0.889-0.438-1.621-1.17-2.06-2.06      c-0.908-1.839-0.849-3.826,0.161-5.452c1.453-2.335,4.516-3.194,7.173-1.884c0.89,0.439,1.622,1.171,2.061,2.061      c0.908,1.839,0.849,3.826-0.162,5.452C66.532,68.875,64.837,69.819,62.979,69.819z M62.979,59.888      c-1.599,0-3.058,0.812-3.903,2.172c-0.872,1.402-0.918,3.126-0.127,4.729c0.368,0.744,0.978,1.355,1.722,1.723      c2.317,1.143,4.955,0.411,6.211-1.609c0.871-1.402,0.917-3.126,0.127-4.729c-0.368-0.744-0.979-1.356-1.723-1.723      C64.53,60.078,63.753,59.888,62.979,59.888z" fill="#313638"/></g></g></g><g><g><g><g><path d="M90.346,81.735H89.94c-0.435,0-0.79-0.355-0.79-0.79V65.975c0-0.436,0.355-0.791,0.79-0.791h0.405       c0.435,0,0.79,0.355,0.79,0.791v14.969C91.136,81.38,90.781,81.735,90.346,81.735z M89.94,65.929l-0.046,15.015l0.451,0.046       c0.025,0,0.046-0.02,0.046-0.046V65.975L89.94,65.929z" fill="#313638"/></g></g></g><g><g><g><path d="M89.288,58.594V47.281l0.417,0.051c0.942,0.114,1.651,0.912,1.651,1.856v7.5       c0,0.944-0.71,1.742-1.651,1.856L89.288,58.594z M90.033,48.207v9.462c0.348-0.194,0.579-0.564,0.579-0.981v-7.5       C90.611,48.771,90.381,48.401,90.033,48.207z" fill="#313638"/></g></g></g></g></g></svg>