<?xml version="1.0" ?><!DOCTYPE svg  PUBLIC '-//W3C//DTD SVG 1.1//EN'  'http://www.w3.org/Graphics/SVG/1.1/DTD/svg11.dtd'><svg enable-background="new 0 0 128 128" id="Layer_1" version="1.1" viewBox="0 0 128 128" xml:space="preserve" xmlns="http://www.w3.org/2000/svg" xmlns:xlink="http://www.w3.org/1999/xlink"><g><g><g><path d="M77.357,39.279h-1.722V15.722h-23.27v23.557h-1.722V15.435c0-0.792,0.644-1.435,1.435-1.435h23.844     c0.792,0,1.435,0.644,1.435,1.435V39.279z" fill="#313638"/></g></g><g><path d="M64,114c-10.121,0-18.356-8.235-18.356-18.356V38.301h36.711v57.343C82.356,105.765,74.121,114,64,114z     M47.367,40.023v55.621c0,9.171,7.462,16.633,16.633,16.633s16.633-7.462,16.633-16.633V40.023H47.367z" fill="#313638"/></g><g><g><path d="M60.272,32.283h-4.54c-0.363,0-0.659-0.296-0.659-0.66v-3.54c0-0.364,0.296-0.66,0.659-0.66h4.54     c0.363,0,0.659,0.296,0.659,0.66v3.54C60.931,31.987,60.635,32.283,60.272,32.283z M55.933,31.421h4.136v-3.137h-4.136V31.421z" fill="#313638"/></g><g><path d="M72.267,32.283h-4.539c-0.364,0-0.66-0.296-0.66-0.66v-3.54c0-0.364,0.296-0.66,0.66-0.66h4.539     c0.364,0,0.66,0.296,0.66,0.66v3.54C72.928,31.987,72.632,32.283,72.267,32.283z M67.929,31.421h4.138v-3.137h-4.138V31.421z" fill="#313638"/></g></g><g><g><g><polygon fill="#313638" points="69.178,60.269 65.379,60.254 65.384,59.393 67.655,59.402 64.599,54.291 61.539,59.405       63.892,59.405 63.892,60.266 60.021,60.266 64.599,52.613     "/></g></g><g><g><polygon fill="#313638" points="75.802,69.5 72.934,69.5 72.934,68.639 74.94,68.639 74.94,63.003 69.304,63.003 69.304,68.639       71.427,68.639 71.427,69.5 68.443,69.5 68.443,62.141 75.802,62.141     "/></g></g><g><g><path d="M55.523,75.045c-1.653-0.464-3.326-1.999-3.326-4.038c0-2.312,1.88-4.193,4.193-4.193      s4.193,1.88,4.193,4.193c0,2.016-1.611,3.556-3.204,4.036l-0.249-0.825c1.288-0.388,2.591-1.615,2.591-3.21      c0-1.837-1.495-3.331-3.331-3.331s-3.331,1.495-3.331,3.331c0,1.592,1.389,2.841,2.698,3.208L55.523,75.045z" fill="#313638"/></g></g><g><path d="M64.912,99.197c-2.548,0-4.62-2.034-4.62-4.535c0-1.943,1.431-3.63,2.906-4.265v-2.285l-5.319-4.528     c-1.949-1.838-2.888-4.009-2.888-6.648v-2.55h0.861v2.55c0,2.389,0.851,4.355,2.603,6.008l5.605,4.771v3.289l-0.294,0.098     c-1.257,0.419-2.613,1.899-2.613,3.561c0,1.991,1.721,3.673,3.759,3.673c1.988,0,3.546-1.614,3.546-3.673     c0-1.795-1.1-3.155-2.869-3.549l-0.338-0.075V79.95l4.441-3.873c1.594-1.509,3.082-3.286,3.082-5.981v-1.038h0.861v1.038     c0,3.029-1.701,5.045-3.365,6.618l-4.159,3.628v6.428l0.246,0.164l-0.246,0.249v3.177c1.96,0.576,3.207,2.231,3.207,4.302     C69.318,97.205,67.383,99.197,64.912,99.197z" fill="#313638"/></g><g><path d="M64.059,86.069l-4.786-3.99c-1.861-1.756-2.231-3.267-2.231-5.143v-2.55h0.861v2.55     c0,1.689,0.317,2.967,1.942,4.5l3.353,2.794V59.776h0.861V86.069z" fill="#313638"/></g><g><path d="M65.25,78.321V59.823h0.861v16.623l2.19-1.879c1.716-1.621,2.421-2.92,2.421-4.471v-0.823h0.861v0.823     c0,1.814-0.784,3.294-2.706,5.11L65.25,78.321z" fill="#313638"/></g></g></g></svg>