<?xml version="1.0" encoding="utf-8"?>
<!-- Svg Vector Icons : http://www.onlinewebfonts.com/icon -->
<!DOCTYPE svg PUBLIC "-//W3C//DTD SVG 1.1//EN" "http://www.w3.org/Graphics/SVG/1.1/DTD/svg11.dtd">
<svg version="1.1" xmlns="http://www.w3.org/2000/svg" xmlns:xlink="http://www.w3.org/1999/xlink" x="0px" y="0px" viewBox="0 0 1000 1000" enable-background="new 0 0 1000 1000" xml:space="preserve">
<metadata> Svg Vector Icons : http://www.onlinewebfonts.com/icon </metadata>
<g><g transform="translate(0.000000,511.000000) scale(0.100000,-0.100000)"><path d="M3973,4930.9v-79.1h-496.1c-332,0-523.8-7.9-579.1-23.7c-126.5-37.5-294.5-215.4-328.1-347.8c-27.7-100.8-27.7-102.8-102.8-102.8h-75.1v-363.7v-363.7l106.7-59.3c63.2-37.6,124.5-90.9,152.2-136.4c47.4-75.1,47.4-79.1,59.3-875.5c9.9-598.8,31.6-1071.2,85-1869.7l73.1-1071.2l-120.6-842c-160.1-1134.5-177.9-1338-191.7-2300.5l-11.9-814.3h162.1h160.1v-102.8c0-128.5,45.5-221.4,144.3-300.4c75.1-59.3,83-61.3,306.3-67.2c262.9-5.9,322.2,13.8,426.9,142.3c49.4,59.3,61.3,94.9,67.2,199.6l7.9,128.5h946.7h946.7v-102.8c0-128.5,45.4-221.4,144.3-300.4c75.1-59.3,83-61.3,306.3-67.2c262.9-5.9,322.1,13.8,426.9,142.3c49.4,59.3,61.3,94.9,67.2,199.6l7.9,128.5H6821h156.2v598.8c0,972.4-25.7,1286.7-199.6,2523.9l-118.6,840l29.6,444.7c17.8,245.1,31.6,454.6,31.6,466.4c0,13.8,53.4,25.7,134.4,31.6c156.2,9.9,253,51.4,357.8,158.1c98.8,96.8,120.6,168,209.5,632.5c120.6,650.2,207.5,1535.7,181.8,1897.4c-23.7,353.8-276.7,602.8-630.5,624.5l-154.2,9.9v256.9c0,142.3-9.9,292.5-23.7,338c-31.6,108.7-215.4,292.5-324.1,324.1c-55.4,15.8-247.1,23.7-579.1,23.7H5396v79.1v79.1h-711.5H3973V4930.9z M5079.8,4614.7v-79.1h672c646.3,0,674-2,711.5-39.5c21.7-21.7,39.5-57.3,39.5-79.1c0-39.5-13.8-39.5-1818.3-39.5s-1818.3,0-1818.3,39.5c0,21.7,17.8,57.3,39.5,79.1c37.5,37.5,65.2,39.5,711.5,39.5h672v79.1v79.1h395.3h395.3V4614.7z M6496.9,2861.6c-7.9-1089-13.8-1282.7-71.2-2071.3c-33.6-478.3-61.3-899.3-61.3-932.9v-65.2H4763.5H3162.6v65.2c0,33.6-27.7,454.6-61.3,932.9c-45.5,642.3-65.2,1094.9-75.1,1729.4c-15.8,996.1-15.8,992.2-211.5,1203.6c-102.8,112.7-106.7,120.6-106.7,227.3v110.7h1899.3h1899.3L6496.9,2861.6z M7168.8,3535.6c118.6-87,128.5-134.4,116.6-571.2c-15.8-585-73.1-1045.5-205.5-1705.6c-69.2-336-85-359.7-235.2-359.7H6738l11.8,124.5c39.5,430.9,53.4,782.7,63.3,1622.6l11.8,944.7l144.3-7.9C7075.9,3579.1,7127.3,3565.2,7168.8,3535.6z M6374.3-567.5c17.8-81,185.8-1302.4,215.4-1567.3c49.4-423,71.2-861.7,71.2-1377.6v-490.1H4761.6H2860.2l11.9,687.8c5.9,399.2,23.7,814.3,43.5,992.2c27.7,278.7,213.5,1648.3,237.2,1755l9.9,43.5h1600.9h1600.9L6374.3-567.5z M3498.6-4397.8v-79h-158.1h-158.1v79v79.1h158.1h158.1V-4397.8z M6344.7-4397.8v-79h-158.1h-158.1v79v79.1h158.1h158.1V-4397.8z"/><path d="M4692.4,3721.4c-23.7-9.9-53.4-41.5-65.2-67.2c-31.6-69.2-31.6-3543.7,0-3612.9c13.8-25.7,49.4-59.3,79.1-73.1c73.1-29.6,162.1,3.9,193.7,73.1c31.6,69.2,31.6,3543.7,0,3610.9c-21.7,47.4-94.9,94.9-142.3,90.9C4743.8,3743.1,4714.1,3733.2,4692.4,3721.4z"/><path d="M4575.8-860c-217.4-43.5-421-154.2-583-316.2c-438.8-438.8-440.7-1100.9-4-1535.7c225.3-225.3,472.4-332,774.8-332c300.4,0,549.4,106.7,770.8,326.1c219.4,221.4,326.1,470.4,326.1,770.8c0,302.4-106.7,549.5-332,774.8C5273.4-917.3,4901.9-794.7,4575.8-860z M5022.4-1196c383.4-118.6,600.8-521.8,509.9-944.7c-41.5-199.6-2-217.4-677.9,322.2l-608.7,488.2l69.2,45.5C4498.7-1158.4,4789.2-1122.8,5022.4-1196z M4690.4-2091.3l591-472.4l-67.2-43.5c-256.9-171.9-650.2-170-905.2,4c-231.2,158.1-347.9,405.2-332,701.6c9.9,179.9,59.3,322.1,98.8,298.5C4089.6-1613,4366.3-1832.4,4690.4-2091.3z"/><path d="M3973-3528.1v-158.1h158.1h158.1v158.1v158.1h-158.1H3973V-3528.1z"/><path d="M4605.4-3528.1v-158.1h158.1h158.1v158.1v158.1h-158.1h-158.1V-3528.1z"/><path d="M5237.9-3528.1v-158.1H5396h158.1v158.1v158.1H5396h-158.1V-3528.1z"/></g></g>
</svg>